<svg width="1024" height="1024" viewBox="0 0 1024 1024" fill="none" xmlns="http://www.w3.org/2000/svg">
<path d="M512 84C748.378 84 940 275.622 940 512C940 748.378 748.378 940 512 940C275.622 940 84 748.378 84 512C84 422.261 111.618 338.973 158.818 270.171C152.562 258.856 149 245.844 149 232C149 188.37 184.37 153 228 153C241.447 153 254.109 156.361 265.193 162.287C334.939 112.975 420.085 84 512 84ZM512 138C433.916 138 361.421 161.929 301.448 202.854C305.03 211.873 307 221.706 307 232C307 275.63 271.63 311 228 311C218.101 311 208.627 309.179 199.895 305.854C160.778 364.957 138 435.818 138 512C138 718.554 305.446 886 512 886C718.554 886 886 718.554 886 512C886 305.446 718.554 138 512 138Z" fill="#18D2D6" style="fill:#18D2D6;fill:color(display-p3 0.0941 0.8235 0.8392);fill-opacity:1;"/>
</svg>
