<svg width="1024" height="1024" viewBox="0 0 1024 1024" fill="none" xmlns="http://www.w3.org/2000/svg">
<path d="M512 261C566.778 261 617.458 278.548 658.725 308.328C668.837 303.625 680.112 301 692 301C735.63 301 771 336.37 771 380C771 400.5 763.191 419.176 750.386 433.217C758.57 457.994 763 484.48 763 512C763 650.623 650.623 763 512 763C373.377 763 261 650.623 261 512C261 373.377 373.377 261 512 261ZM512 322C407.066 322 322 407.066 322 512C322 616.934 407.066 702 512 702C616.934 702 702 616.934 702 512C702 493.591 699.378 475.794 694.494 458.96C693.666 458.986 692.834 459 692 459C648.37 459 613 423.63 613 380C613 370.855 614.554 362.073 617.412 353.903C587.249 333.752 550.998 322 512 322Z" fill="#18D2D6" style="fill:#18D2D6;fill:color(display-p3 0.0941 0.8235 0.8392);fill-opacity:1;"/>
</svg>
