<svg width="17" height="20" viewBox="0 0 17 20" fill="none" xmlns="http://www.w3.org/2000/svg">
<path d="M9.94167 17.5C9.79516 17.7525 9.58487 17.9622 9.33185 18.1079C9.07884 18.2536 8.79198 18.3303 8.5 18.3303C8.20802 18.3303 7.92116 18.2536 7.66814 18.1079C7.41513 17.9622 7.20484 17.7525 7.05833 17.5M13.5 6.66663C13.5 5.34054 12.9732 4.06877 12.0355 3.13109C11.0979 2.19341 9.82608 1.66663 8.5 1.66663C7.17392 1.66663 5.90215 2.19341 4.96447 3.13109C4.02678 4.06877 3.5 5.34054 3.5 6.66663C3.5 12.5 1 14.1666 1 14.1666H16C16 14.1666 13.5 12.5 13.5 6.66663Z" stroke="#FFB8B8" stroke-width="2" stroke-linecap="round" stroke-linejoin="round"/>
</svg>
