<svg width="16" height="20" viewBox="0 0 16 20" fill="none" xmlns="http://www.w3.org/2000/svg">
<path d="M11.3333 3.33335H12.9999C13.4419 3.33335 13.8659 3.50895 14.1784 3.82151C14.491 4.13407 14.6666 4.55799 14.6666 5.00002V16.6667C14.6666 17.1087 14.491 17.5326 14.1784 17.8452C13.8659 18.1578 13.4419 18.3334 12.9999 18.3334H2.99992C2.55789 18.3334 2.13397 18.1578 1.82141 17.8452C1.50885 17.5326 1.33325 17.1087 1.33325 16.6667V5.00002C1.33325 4.55799 1.50885 4.13407 1.82141 3.82151C2.13397 3.50895 2.55789 3.33335 2.99992 3.33335H4.66659M5.49992 1.66669H10.4999C10.9602 1.66669 11.3333 2.03978 11.3333 2.50002V4.16669C11.3333 4.62692 10.9602 5.00002 10.4999 5.00002H5.49992C5.03968 5.00002 4.66659 4.62692 4.66659 4.16669V2.50002C4.66659 2.03978 5.03968 1.66669 5.49992 1.66669Z" stroke="#565656" stroke-width="2" stroke-linecap="round" stroke-linejoin="round"/>
</svg>
