<svg width="20" height="19" viewBox="0 0 20 19" fill="none" xmlns="http://www.w3.org/2000/svg">
<path d="M4.16663 12H3.33329C2.89127 12 2.46734 11.8244 2.15478 11.5118C1.84222 11.1992 1.66663 10.7753 1.66663 10.3333V2.83329C1.66663 2.39127 1.84222 1.96734 2.15478 1.65478C2.46734 1.34222 2.89127 1.16663 3.33329 1.16663H10.8333C11.2753 1.16663 11.6992 1.34222 12.0118 1.65478C12.3244 1.96734 12.5 2.39127 12.5 2.83329V3.66663M9.16663 6.99996H16.6666C17.5871 6.99996 18.3333 7.74615 18.3333 8.66663V16.1666C18.3333 17.0871 17.5871 17.8333 16.6666 17.8333H9.16663C8.24615 17.8333 7.49996 17.0871 7.49996 16.1666V8.66663C7.49996 7.74615 8.24615 6.99996 9.16663 6.99996Z" stroke="#565656" stroke-width="2" stroke-linecap="round" stroke-linejoin="round"/>
</svg>
