<svg width="21" height="18" viewBox="0 0 21 18" fill="none" xmlns="http://www.w3.org/2000/svg">
<path d="M17.8667 2.34166C17.4411 1.91583 16.9357 1.57803 16.3795 1.34757C15.8233 1.1171 15.2271 0.998474 14.6251 0.998474C14.023 0.998474 13.4268 1.1171 12.8706 1.34757C12.3144 1.57803 11.809 1.91583 11.3834 2.34166L10.5001 3.225L9.61673 2.34166C8.75698 1.48192 7.59092 0.99892 6.37506 0.99892C5.1592 0.99892 3.99314 1.48192 3.13339 2.34166C2.27365 3.20141 1.79065 4.36747 1.79065 5.58333C1.79065 6.79919 2.27365 7.96525 3.13339 8.825L10.5001 16.1917L17.8667 8.825C18.2926 8.39937 18.6304 7.89401 18.8608 7.33779C19.0913 6.78158 19.2099 6.1854 19.2099 5.58333C19.2099 4.98126 19.0913 4.38508 18.8608 3.82887C18.6304 3.27265 18.2926 2.76729 17.8667 2.34166Z" stroke="#565656" stroke-width="2" stroke-linecap="round" stroke-linejoin="round"/>
</svg>
