<svg width="18" height="19" viewBox="0 0 18 19" fill="none" xmlns="http://www.w3.org/2000/svg">
<path d="M4.83333 8.66667V5.33334C4.83333 4.22827 5.27232 3.16846 6.05372 2.38706C6.83512 1.60566 7.89493 1.16667 9 1.16667C10.1051 1.16667 11.1649 1.60566 11.9463 2.38706C12.7277 3.16846 13.1667 4.22827 13.1667 5.33334V8.66667M3.16667 8.66667H14.8333C15.7538 8.66667 16.5 9.41286 16.5 10.3333V16.1667C16.5 17.0871 15.7538 17.8333 14.8333 17.8333H3.16667C2.24619 17.8333 1.5 17.0871 1.5 16.1667V10.3333C1.5 9.41286 2.24619 8.66667 3.16667 8.66667Z" stroke="#565656" stroke-width="2" stroke-linecap="round" stroke-linejoin="round"/>
</svg>
