<svg width="20" height="20" viewBox="0 0 20 20" fill="none" xmlns="http://www.w3.org/2000/svg">
<path d="M18.625 10.7571C18.4743 12.3884 17.8621 13.943 16.86 15.239C15.858 16.535 14.5075 17.5189 12.9667 18.0754C11.4259 18.632 9.75851 18.7382 8.15955 18.3817C6.56059 18.0251 5.09623 17.2206 3.93783 16.0622C2.77942 14.9038 1.97489 13.4394 1.61836 11.8405C1.26182 10.2415 1.36805 8.57408 1.92459 7.03328C2.48114 5.49249 3.46499 4.14206 4.76102 3.14001C6.05706 2.13797 7.61167 1.52575 9.24294 1.375C8.28788 2.66709 7.8283 4.25906 7.94779 5.86136C8.06727 7.46365 8.75789 8.96985 9.89404 10.106C11.0302 11.2421 12.5364 11.9328 14.1387 12.0522C15.741 12.1717 17.3329 11.7121 18.625 10.7571Z" stroke="white" stroke-width="2" stroke-linecap="round" stroke-linejoin="round"/>
</svg>
