<svg width="20" height="17" viewBox="0 0 20 17" fill="none" xmlns="http://www.w3.org/2000/svg">
<path d="M14.1666 16V14.3333C14.1666 13.4493 13.8154 12.6014 13.1903 11.9763C12.5652 11.3512 11.7173 11 10.8333 11H4.16659C3.28253 11 2.43468 11.3512 1.80956 11.9763C1.18444 12.6014 0.833252 13.4493 0.833252 14.3333V16M19.1666 16V14.3333C19.166 13.5948 18.9202 12.8773 18.4677 12.2936C18.0152 11.7099 17.3817 11.293 16.6666 11.1083M13.3333 1.10833C14.0503 1.29192 14.6858 1.70892 15.1396 2.29359C15.5935 2.87827 15.8398 3.59736 15.8398 4.3375C15.8398 5.07764 15.5935 5.79673 15.1396 6.38141C14.6858 6.96608 14.0503 7.38308 13.3333 7.56667M10.8333 4.33333C10.8333 6.17428 9.34087 7.66667 7.49992 7.66667C5.65897 7.66667 4.16659 6.17428 4.16659 4.33333C4.16659 2.49238 5.65897 1 7.49992 1C9.34087 1 10.8333 2.49238 10.8333 4.33333Z" stroke="white" stroke-width="2" stroke-linecap="round" stroke-linejoin="round"/>
</svg>
