<svg width="18" height="21" viewBox="0 0 18 21" fill="none" xmlns="http://www.w3.org/2000/svg">
<path d="M16.5 8.83337C16.5 14.6667 9 19.6667 9 19.6667C9 19.6667 1.5 14.6667 1.5 8.83337C1.5 6.84425 2.29018 4.9366 3.6967 3.53007C5.10322 2.12355 7.01088 1.33337 9 1.33337C10.9891 1.33337 12.8968 2.12355 14.3033 3.53007C15.7098 4.9366 16.5 6.84425 16.5 8.83337Z" stroke="white" stroke-width="2" stroke-linecap="round" stroke-linejoin="round"/>
<path d="M9 11.3334C10.3807 11.3334 11.5 10.2141 11.5 8.83337C11.5 7.45266 10.3807 6.33337 9 6.33337C7.61929 6.33337 6.5 7.45266 6.5 8.83337C6.5 10.2141 7.61929 11.3334 9 11.3334Z" stroke="white" stroke-width="2" stroke-linecap="round" stroke-linejoin="round"/>
</svg>
