<svg width="21" height="18" viewBox="0 0 21 18" fill="none" xmlns="http://www.w3.org/2000/svg">
<path d="M19.6667 2.33335V7.33335M19.6667 7.33335H14.6667M19.6667 7.33335L15.8 3.70001C14.9044 2.80394 13.7964 2.14935 12.5794 1.79732C11.3623 1.4453 10.076 1.4073 8.84028 1.68689C7.60459 1.96648 6.45987 2.55454 5.51293 3.39619C4.56598 4.23785 3.84768 5.30567 3.42504 6.50001M1.33337 15.6667V10.6667M1.33337 10.6667H6.33337M1.33337 10.6667L5.20004 14.3C6.09566 15.1961 7.20368 15.8507 8.42071 16.2027C9.63774 16.5547 10.9241 16.5927 12.1598 16.3131C13.3955 16.0335 14.5402 15.4455 15.4872 14.6038C16.4341 13.7622 17.1524 12.6944 17.575 11.5" stroke="black" stroke-width="2" stroke-linecap="round" stroke-linejoin="round"/>
</svg>
