<svg width="23" height="21" viewBox="0 0 23 21" fill="none" xmlns="http://www.w3.org/2000/svg">
<path d="M1 2.50001V8.50001M1 8.50001H7M1 8.50001L5.64 4.14001C7.02091 2.76143 8.81245 1.86898 10.7447 1.59713C12.6769 1.32527 14.6451 1.68874 16.3528 2.63277C18.0605 3.5768 19.4152 5.05025 20.2126 6.83111C21.0101 8.61197 21.2072 10.6038 20.7742 12.5064C20.3413 14.409 19.3017 16.1194 17.8121 17.3798C16.3226 18.6402 14.4637 19.3824 12.5157 19.4945C10.5677 19.6066 8.63598 19.0826 7.01166 18.0014C5.38734 16.9202 4.15839 15.3404 3.51 13.5" stroke="#565656" stroke-width="2.5" stroke-linecap="round" stroke-linejoin="round"/>
</svg>
