<svg width="21" height="20" viewBox="0 0 21 20" fill="none" xmlns="http://www.w3.org/2000/svg">
<path d="M11.9416 17.5C11.7951 17.7526 11.5848 17.9623 11.3318 18.108C11.0788 18.2537 10.7919 18.3304 10.4999 18.3304C10.2079 18.3304 9.92108 18.2537 9.66806 18.108C9.41505 17.9623 9.20476 17.7526 9.05825 17.5M16.0249 10.8334C15.6542 9.47621 15.4774 8.07341 15.4999 6.66671C15.5013 5.76093 15.2565 4.87179 14.7919 4.09428C14.3272 3.31677 13.6601 2.68009 12.8617 2.25224C12.0633 1.82439 11.1637 1.62145 10.259 1.6651C9.35427 1.70874 8.47839 1.99733 7.72492 2.50004M5.71659 5.21671C5.57181 5.68638 5.49876 6.17522 5.49992 6.66671C5.49992 12.5 2.99992 14.1667 2.99992 14.1667H14.6666M1.33325 0.833374L19.6666 19.1667" stroke="#FFB8B8" stroke-width="2" stroke-linecap="round" stroke-linejoin="round"/>
</svg>
